<?xml version="1.0" encoding="UTF-8"?>
<svg xmlns="http://www.w3.org/2000/svg" xmlns:xlink="http://www.w3.org/1999/xlink" width="56px" height="38px" viewBox="0 0 56 38" version="1.1">
<g id="surface1" transform="matrix(1, 0, 0, 1, 39.759678, 90.537453)">
  <path style="stroke:none;fill-rule:evenodd;fill:rgb(0%,0%,0%);fill-opacity:1;" d="M -28.544 -55.12 C -29.239 -55.097 -29.962 -55.179 -30.536 -55.456 C -31.013 -55.683 -31.388 -56.065 -31.525 -56.663 C -31.556 -56.808 -31.579 -56.952 -31.587 -57.101 C -31.673 -58.425 -30.802 -59.788 -29.591 -60.905 C -28.318 -62.081 -26.693 -62.96 -25.353 -63.265 C -25.111 -63.323 -24.88 -63.358 -24.665 -63.37 C -24.622 -63.374 -24.681 -63.37 -24.646 -63.374 C -23.493 -63.437 -21.97 -62.862 -20.696 -61.948 C -19.466 -61.062 -18.505 -59.882 -18.431 -58.706 C -18.427 -58.663 -18.431 -58.726 -18.431 -58.69 C -18.419 -58.503 -18.427 -58.315 -18.454 -58.136 C -18.556 -57.472 -18.915 -56.917 -19.415 -56.515 C -19.935 -56.097 -20.607 -55.843 -21.298 -55.804 L -21.306 -55.804 C -21.544 -57.097 -22.118 -58.062 -23.099 -58.995 C -22.517 -56.866 -22.165 -54.886 -24.907 -54.69 C -27.532 -54.507 -27.88 -56.214 -27.72 -58.585 C -28.423 -57.253 -28.685 -56.464 -28.544 -55.12 Z M -16.821 -58.808 C -16.927 -60.511 -18.169 -62.112 -19.755 -63.257 C -21.306 -64.37 -23.224 -65.069 -24.736 -64.983 C -24.786 -64.98 -24.739 -64.983 -24.767 -64.98 C -25.068 -64.96 -25.384 -64.913 -25.712 -64.839 C -27.306 -64.476 -29.212 -63.452 -30.685 -62.093 C -32.22 -60.675 -33.318 -58.87 -33.196 -56.999 C -33.181 -56.769 -33.15 -56.534 -33.095 -56.304 C -33.044 -56.077 -32.978 -55.87 -32.892 -55.675 C -33.517 -55.526 -34.157 -55.378 -34.814 -55.226 C -36.005 -54.952 -36.986 -54.733 -37.896 -54.526 C -38.329 -54.433 -38.603 -54.003 -38.509 -53.569 C -38.411 -53.136 -37.982 -52.858 -37.548 -52.956 C -36.396 -53.214 -35.314 -53.456 -34.454 -53.655 C -33.579 -53.855 -32.681 -54.065 -31.739 -54.296 C -31.579 -54.187 -31.411 -54.089 -31.232 -54.003 C -30.236 -53.526 -29.017 -53.44 -27.966 -53.542 C -26.857 -53.206 -25.818 -53.011 -24.802 -53.081 C -23.778 -53.151 -22.81 -53.483 -21.853 -54.198 C -21.642 -54.183 -21.427 -54.183 -21.212 -54.194 C -20.185 -54.253 -19.185 -54.632 -18.403 -55.257 C -17.943 -55.628 -17.556 -56.085 -17.278 -56.612 C -17.005 -56.644 -16.732 -56.675 -16.458 -56.706 C -12.88 -57.112 -9.443 -57.503 -5.857 -57.62 C -5.743 -57.394 -5.603 -57.179 -5.446 -56.983 C -5.044 -56.476 -4.517 -56.077 -3.892 -55.808 C -3.099 -55.464 -2.157 -55.335 -1.146 -55.464 C 0.065 -55.023 1.12 -54.827 2.132 -54.933 C 3.1 -55.03 3.995 -55.394 4.901 -56.069 C 5.55 -55.89 6.147 -55.851 6.69 -55.921 C 7.456 -56.019 8.097 -56.331 8.608 -56.8 C 9.132 -57.273 9.507 -57.78 9.753 -58.304 C 10.725 -58.312 11.69 -58.319 12.651 -58.323 C 13.8 -58.323 14.948 -58.319 16.108 -58.308 C 16.237 -58.308 16.358 -58.335 16.468 -58.39 L 16.468 -59.839 C 16.362 -59.89 16.245 -59.917 16.12 -59.917 C 14.96 -59.929 13.807 -59.933 12.651 -59.933 C 11.804 -59.929 10.96 -59.925 10.116 -59.917 C 10.12 -60.8 9.827 -61.675 9.319 -62.491 C 8.718 -63.468 7.811 -64.358 6.768 -65.073 C 5.112 -66.206 3.069 -66.913 1.304 -66.8 C -0.044 -66.714 -1.599 -66.183 -2.946 -65.253 C -4.126 -64.44 -5.157 -63.319 -5.763 -61.925 C -6.185 -60.944 -6.345 -60.034 -6.29 -59.218 C -9.829 -59.085 -13.165 -58.702 -16.638 -58.308 L -16.818 -58.288 C -16.81 -58.448 -16.81 -58.612 -16.818 -58.78 C -16.821 -58.827 -16.818 -58.776 -16.821 -58.808 Z M -4.185 -57.987 C -4.423 -58.284 -4.583 -58.648 -4.65 -59.062 C -4.751 -59.69 -4.65 -60.44 -4.282 -61.284 C -3.81 -62.378 -2.986 -63.273 -2.032 -63.929 C -0.931 -64.687 0.327 -65.12 1.405 -65.19 C 2.807 -65.276 4.475 -64.687 5.858 -63.741 C 6.729 -63.148 7.472 -62.421 7.952 -61.648 C 8.386 -60.94 8.597 -60.198 8.46 -59.499 C 8.358 -58.987 8.065 -58.476 7.53 -57.991 C 7.253 -57.741 6.905 -57.569 6.487 -57.519 C 6.397 -57.507 6.3 -57.499 6.202 -57.499 C 5.753 -58.796 5.44 -59.659 4.589 -60.991 C 4.659 -60.089 4.956 -58.612 4.401 -57.796 C 3.972 -57.167 2.714 -56.612 1.968 -56.534 C 1.499 -56.487 0.995 -56.534 0.44 -56.663 C -0.31 -58.413 -0.204 -59.569 -0.032 -60.722 C -1.036 -59.378 -1.38 -58.608 -1.259 -57.073 C -2.017 -56.964 -2.7 -57.046 -3.255 -57.284 C -3.63 -57.448 -3.946 -57.687 -4.185 -57.987"></path>
  <path style=" stroke:none;fill-rule:evenodd;fill:rgb(98.823529%,69.019608%,25.490196%);fill-opacity:1;" d="M -8.15 -88.605 C -9.474 -85.882 -11.259 -82.433 -11.486 -79.448 C -12.189 -70.155 -1.29 -65.698 5.28 -73.651 C 5.483 -73.48 5.698 -73.312 5.921 -73.148 C 7.561 -71.921 8.722 -71.398 9.577 -71.659 C 12.276 -72.487 12.557 -84.64 11.421 -86.265 C 10.093 -88.163 3.636 -89.71 1.37 -89.398 C 0.304 -89.253 -0.669 -88.722 -1.646 -87.44 C -4.06 -87.944 -6.181 -88.351 -8.15 -88.605"></path>
  <path style=" stroke:none;fill-rule:nonzero;fill:rgb(0%,0%,0%);fill-opacity:1;" d="M -28.575 -78.73 C -28.587 -79.175 -28.239 -79.546 -27.794 -79.562 C -27.349 -79.573 -26.978 -79.226 -26.962 -78.78 C -26.903 -76.917 -27.009 -75.511 -27.458 -74.19 C -27.907 -72.862 -28.693 -71.667 -29.986 -70.222 C -30.736 -69.382 -31.579 -68.632 -32.454 -68.175 C -33.275 -67.749 -34.13 -67.573 -34.982 -67.796 C -35.618 -67.964 -36.13 -68.495 -36.548 -69.249 C -36.9 -69.878 -37.196 -70.671 -37.45 -71.523 C -37.751 -72.523 -38.544 -75.632 -39.032 -78.179 C -39.357 -79.862 -39.54 -81.351 -39.376 -81.972 C -38.982 -83.433 -37.091 -84.89 -34.892 -86.003 C -32.302 -87.312 -29.196 -88.198 -27.724 -88.011 C -27.224 -87.944 -26.751 -87.773 -26.247 -87.452 C -25.907 -87.241 -25.552 -86.96 -25.161 -86.601 C -20.7 -88.601 -17.204 -89.507 -13.65 -89.679 C -10.107 -89.847 -6.56 -89.28 -1.962 -88.331 C -1.517 -88.847 -1.064 -89.241 -0.595 -89.53 C 0.003 -89.905 0.62 -90.108 1.264 -90.198 C 2.604 -90.382 5.233 -89.987 7.55 -89.265 C 9.542 -88.644 11.366 -87.753 12.081 -86.726 C 12.214 -86.538 12.323 -86.292 12.417 -85.991 C 12.854 -84.562 12.987 -81.339 12.718 -78.296 C 12.44 -75.14 11.698 -72.097 10.366 -71.167 C 10.194 -71.042 10.007 -70.952 9.811 -70.89 C 9.194 -70.702 8.511 -70.776 7.733 -71.101 C 7.069 -71.374 6.311 -71.847 5.436 -72.503 C 3.944 -73.62 2.8 -74.808 2.022 -76.206 C 1.233 -77.62 0.827 -79.222 0.827 -81.136 C 0.827 -81.581 1.19 -81.944 1.636 -81.944 C 2.085 -81.944 2.444 -81.581 2.444 -81.136 C 2.444 -79.503 2.78 -78.155 3.429 -76.987 C 4.089 -75.804 5.089 -74.773 6.405 -73.792 C 7.167 -73.218 7.811 -72.815 8.35 -72.589 C 8.776 -72.413 9.104 -72.358 9.343 -72.433 C 9.374 -72.44 9.409 -72.46 9.444 -72.483 C 10.327 -73.101 10.866 -75.683 11.108 -78.437 C 11.362 -81.304 11.257 -84.273 10.874 -85.526 C 10.831 -85.663 10.796 -85.757 10.764 -85.804 C 10.272 -86.503 8.768 -87.194 7.069 -87.722 C 4.948 -88.386 2.612 -88.753 1.479 -88.601 C 1.057 -88.542 0.651 -88.405 0.257 -88.159 C -0.161 -87.898 -0.579 -87.511 -1.005 -86.952 C -1.185 -86.714 -1.497 -86.589 -1.81 -86.651 C -6.521 -87.636 -10.087 -88.233 -13.575 -88.065 C -17.036 -87.901 -20.474 -86.98 -24.954 -84.925 C -25.255 -84.769 -25.634 -84.815 -25.888 -85.065 C -26.368 -85.538 -26.759 -85.87 -27.107 -86.089 C -27.403 -86.276 -27.665 -86.378 -27.927 -86.413 C -29.114 -86.562 -31.821 -85.749 -34.165 -84.562 C -36.001 -83.632 -37.556 -82.519 -37.818 -81.554 C -37.911 -81.198 -37.732 -79.96 -37.446 -78.48 C -36.97 -75.991 -36.196 -72.956 -35.903 -71.983 C -35.677 -71.226 -35.423 -70.538 -35.142 -70.034 C -34.931 -69.651 -34.732 -69.398 -34.568 -69.355 C -34.15 -69.245 -33.681 -69.358 -33.196 -69.608 C -32.505 -69.968 -31.814 -70.593 -31.185 -71.292 C -30.044 -72.569 -29.361 -73.601 -28.986 -74.71 C -28.607 -75.823 -28.521 -77.058 -28.575 -78.73"></path>
  <path style=" stroke:none;fill-rule:evenodd;fill:rgb(0%,0%,0%);fill-opacity:1;" d="M -11.626 -61.245 L -12.618 -63.749 C -13.845 -64.327 -16.915 -65.839 -16.716 -67.343 C -16.357 -70.03 -7.72 -70.288 -7.532 -67.655 C -7.443 -66.358 -10.079 -64.597 -11.185 -63.858 L -11.626 -61.245 Z M -14.79 -68.128 C -13.638 -68.753 -9.821 -69.315 -8.739 -68.331 C -8.325 -67.948 -8.497 -67.276 -9.114 -67.257 C -9.439 -67.249 -9.818 -67.394 -10.208 -67.546 C -11.782 -68.163 -13.161 -68.069 -14.79 -68.128"></path>
  <path style=" stroke:none;fill-rule:evenodd;fill:rgb(0%,0%,0%);fill-opacity:1;" d="M -22.294 -71.546 L -22.583 -71.355 L -23.044 -71.233 L -23.333 -71.331 L -23.454 -71.597 L -23.259 -72.347 L -22.9 -73.046 L -22.486 -73.675 L -21.786 -74.257 L -21.083 -74.546 L -20.552 -74.62 L -19.872 -74.569 L -19.173 -74.257 L -18.614 -73.796 L -18.204 -73.265 L -18.06 -72.855 L -18.009 -72.44 L -18.181 -72.175 L -18.954 -72.128 L -20.068 -72.202 L -20.986 -72.007 L -21.736 -71.788 L -22.294 -71.546"></path>
  <path style=" stroke:none;fill-rule:evenodd;fill:rgb(0%,0%,0%);fill-opacity:1;" d="M -6.15 -73.073 C -6.45 -72.995 -6.79 -72.952 -6.954 -73.148 C -7.103 -73.323 -7.083 -73.581 -7.017 -73.831 C -6.736 -74.886 -5.634 -75.757 -4.54 -75.78 C -3.212 -75.815 -2.267 -74.788 -1.798 -73.655 C -1.681 -73.374 -1.611 -73.097 -1.728 -72.964 C -1.814 -72.866 -2.017 -72.862 -2.243 -72.894 C -3.009 -73.003 -3.642 -73.276 -4.482 -73.312 C -5.138 -73.335 -5.544 -73.23 -6.15 -73.073"></path>
</g>

</svg>
